<?xml version="1.0" encoding="UTF-8"?>
<svg id="Calque_1" xmlns="http://www.w3.org/2000/svg" version="1.1" viewBox="0 0 512 512">
  <!-- Generator: Adobe Illustrator 29.5.1, SVG Export Plug-In . SVG Version: 2.1.0 Build 141)  -->
  <defs>
    <style>
      .st0 {
        fill-rule: evenodd;
      }
    </style>
  </defs>
  <path class="st0" d="M11.1,10.4c14.3-14.3,37.4-14.3,51.7,0l193.6,193.6L450,10.4c14.3-14.3,37.4-14.3,51.7,0,14.3,14.3,14.3,37.4,0,51.7l-193.6,193.6,193.6,193.6c14.3,14.3,14.3,37.4,0,51.7-14.3,14.3-37.4,14.3-51.7,0l-193.6-193.6L62.9,501c-14.3,14.3-37.4,14.3-51.7,0-14.3-14.3-14.3-37.4,0-51.7l193.6-193.6L11.1,62.1C-3.1,47.9-3.1,24.7,11.1,10.4Z"/>
</svg>