<?xml version="1.0" encoding="UTF-8"?>
<svg id="Calque_1" xmlns="http://www.w3.org/2000/svg" version="1.1" viewBox="0 0 512 512">
  <!-- Generator: Adobe Illustrator 29.5.1, SVG Export Plug-In . SVG Version: 2.1.0 Build 141)  -->
  <path d="M392.3,225.5l-6.5,52.1c-1.1,8.7-8.5,15.2-17.3,15.2h-84.9v217.7c-8.9.8-18,1.2-27.2,1.2-20.5,0-40.5-2-59.8-5.9v-213h-65.3c-6,0-10.9-4.9-10.9-10.9v-65.1c0-6,4.9-10.9,10.9-10.9h65.3v-97.7C196.6,48.3,245.3-.3,305.4-.3h76.1c6,0,10.9,4.9,10.9,10.9v65.1c0,6-4.9,10.9-10.9,10.9h-54.4c-24,0-43.5,19.4-43.5,43.4v76h91.4c10.5,0,18.6,9.2,17.3,19.5h0Z"/>
</svg>