<?xml version="1.0" encoding="UTF-8"?>
<svg id="Calque_1" xmlns="http://www.w3.org/2000/svg" version="1.1" viewBox="0 0 512 512">
  <!-- Generator: Adobe Illustrator 29.5.1, SVG Export Plug-In . SVG Version: 2.1.0 Build 141)  -->
  <path d="M388.9-.3H124C55.8-.3.4,55.1.4,123.3v264.8c0,68.2,55.3,123.6,123.6,123.6h264.8c68.2,0,123.6-55.3,123.6-123.6V123.3C512.4,55.1,457.1-.3,388.9-.3ZM468.3,379.3c0,48.7-39.5,88.3-88.3,88.3h-247.2c-48.7,0-88.3-39.5-88.3-88.3v-247.2c0-48.7,39.5-88.3,88.3-88.3h247.2c48.7,0,88.3,39.5,88.3,88.3v247.2Z"/>
  <path d="M266.3,117.9c-70.6,0-128,61.8-128,137.8s57.4,137.8,128,137.8,128-61.8,128-137.8-57.4-137.8-128-137.8ZM266.3,347.6c-47,0-85.3-41.3-85.3-91.9s38.3-91.9,85.3-91.9,85.3,41.3,85.3,91.9-38.3,91.9-85.3,91.9Z"/>
</svg>