<?xml version="1.0" encoding="UTF-8"?>
<svg id="Calque_1" xmlns="http://www.w3.org/2000/svg" version="1.1" viewBox="0 0 512 512">
  <!-- Generator: Adobe Illustrator 29.5.1, SVG Export Plug-In . SVG Version: 2.1.0 Build 141)  -->
  <circle cx="82.4" cy="71.4" r="71.7"/>
  <path d="M129,184H35.7c-2.5,0-4.6,2.2-4.6,4.9v317.9c0,2.7,2.1,4.9,4.6,4.9h93.2c2.5,0,4.6-2.2,4.6-4.9V188.9c0-2.7-2.1-4.9-4.6-4.9Z"/>
  <path d="M382,163.6c-40.3,0-76.4,19-98.3,48.1v-14.4c0-12.4-9.8-22.5-21.8-22.5h-65.5c-12,0-21.8,10.1-21.8,22.5v292c0,12.4,9.8,22.5,21.8,22.5h65.5c12,0,21.8-10.1,21.8-22.5v-157.2c0-31,24.5-56.1,54.6-56.1s54.6,25.1,54.6,56.1v157.2c0,12.4,9.8,22.5,21.8,22.5h65.5c12,0,21.8-10.1,21.8-22.5v-190.9c0-89.9-59.9-134.8-120.1-134.8Z"/>
</svg>