<?xml version="1.0" encoding="UTF-8"?>
<svg id="Calque_1" xmlns="http://www.w3.org/2000/svg" version="1.1" viewBox="0 0 512 512">
  <!-- Generator: Adobe Illustrator 29.5.1, SVG Export Plug-In . SVG Version: 2.1.0 Build 141)  -->
  <g id="Media__x2F__Play">
    <path d="M58.9,511.7c-1.5,0-3,0-4.6-.3-12.9-1.7-24.7-8.7-32.2-19.3-8.7-12.2-8.7-28.2-8.7-60.2V79.6c0-32,0-48,8.7-60.2C29.7,8.7,41.4,1.7,54.3,0c14.9-1.9,29,5.6,57.2,20.7l329.9,176c.2,0,.3.2.5.3,31,16.5,46.6,24.8,53.2,39.1,5.8,12.5,5.8,26.8,0,39.3-6.6,14.3-22.2,22.7-53.3,39.2L111.5,490.8c-25.3,13.5-39.3,21-52.6,21ZM58.8,27.5c-.3,0-.6,0-.9,0-5.3.7-10.1,3.6-13.2,7.9-3.5,5-3.5,20.6-3.5,44.1v352.3c0,23.6,0,39.1,3.5,44.1,3.1,4.3,7.9,7.2,13.2,7.9,6.1.8,19.8-6.5,40.6-17.6l330.3-176.2c22.3-11.9,38.5-20.5,41.2-26.4,2.4-5.1,2.4-11,0-16.1-2.7-5.8-18.6-14.3-40.7-26.1-.2,0-.3-.2-.5-.2L98.5,45.2c-19.8-10.5-33.2-17.7-39.7-17.7Z"/>
  </g>
</svg>