<?xml version="1.0" encoding="UTF-8"?>
<svg id="Calque_1" xmlns="http://www.w3.org/2000/svg" version="1.1" viewBox="0 0 512 512">
  <!-- Generator: Adobe Illustrator 29.5.1, SVG Export Plug-In . SVG Version: 2.1.0 Build 141)  -->
  <path d="M380.9,3l-184.1,151.6h-109.8c-25.3,0-45.9,20.5-45.9,45.9h0v108.3c0,25.3,20.5,45.9,45.9,45.9h109.8l184.1,151.6c7.6,5.5,18.3,3.7,23.7-3.9,2.1-2.9,3.2-6.3,3.2-9.9V16.8c0-9.4-7.6-17-17-17-3.5,0-7,1.1-9.9,3.2ZM374.5,457.5l-165.7-136.3h-121.8c-6.9,0-12.5-5.6-12.5-12.5h0v-108.3c0-6.9,5.6-12.5,12.5-12.5h121.8L374.5,51.6v405.9Z"/>
</svg>