<?xml version="1.0" encoding="UTF-8"?>
<svg id="Calque_1" xmlns="http://www.w3.org/2000/svg" version="1.1" viewBox="0 0 512 512">
  <!-- Generator: Adobe Illustrator 29.3.1, SVG Export Plug-In . SVG Version: 2.1.0 Build 151)  -->
  <path id="picto_world" d="M256.4-.3C115.1-.3.4,114.3.4,255.7s114.6,256,256,256,256-114.6,256-256C512.3,114.4,397.8-.1,256.4-.3ZM31.3,270.8h88.5c1.2,30.7,6.4,61,15.4,90.3H56.8c-14.8-28-23.5-58.8-25.5-90.3ZM119.8,240.6H31.3c2-31.6,10.7-62.4,25.5-90.3h78.3c-9,29.3-14.2,59.7-15.4,90.4h0ZM167,150.3h177.5c10,29.2,15.7,59.6,17.1,90.3h-211.8c1.4-30.8,7.2-61.2,17.2-90.3h0ZM149.9,270.8h211.9c-1.4,30.8-7.2,61.2-17.2,90.3h-177.2c-10.1-29.1-15.9-59.6-17.4-90.3ZM391.8,270.8h89.7c-2,31.6-10.7,62.4-25.5,90.3h-79.6c9-29.3,14.2-59.7,15.4-90.3h0ZM391.8,240.6c-1.2-30.7-6.3-61-15.4-90.3h79.6c14.8,28,23.5,58.8,25.5,90.3h-89.7ZM436.7,120.1h-70.9c-12-29-27.7-56.3-46.7-81.3,47,13.7,88.2,42.2,117.6,81.3h0ZM273.3,30.7c24.4,26.5,44.4,56.7,59.4,89.5h-153.6c14.9-32.8,34.9-63,59.3-89.4,6-.4,11.8-.9,18.1-.9s11.2.4,16.8.8ZM192.2,39.1c-18.9,24.9-34.5,52.2-46.4,81.1h-69.7c29-38.7,69.7-67.2,116.1-81.1ZM76.1,391.2h69.8c12,28.9,27.7,56.2,46.6,81.1-46.5-13.9-87.3-42.3-116.4-81.1ZM238.7,480.7c-24.5-26.5-44.6-56.7-59.6-89.4h153.6c-15,32.8-35.1,63-59.6,89.5-5.4.4-10.9.8-16.5.8s-11.8-.4-17.8-.9h-.2ZM318.8,472.8c19.1-25.1,34.8-52.5,46.9-81.6h70.9c-29.4,39.2-70.7,67.7-117.8,81.4v.2Z"/>
</svg>