<?xml version="1.0" encoding="UTF-8"?>
<svg id="Calque_1" xmlns="http://www.w3.org/2000/svg" version="1.1" viewBox="0 0 842.3 311.1">
  <!-- Generator: Adobe Illustrator 29.5.1, SVG Export Plug-In . SVG Version: 2.1.0 Build 141)  -->
  <defs>
    <style>
      .st0 {
        fill: #fff;
      }
    </style>
  </defs>
  <g>
    <path class="st0" d="M82.7,102c10.5-5.3,17.4-15.5,17.4-31l-.3-28.7c0-22.7-16-38.4-41.4-38.4H3.9v199h52.5c29.3,0,44.8-18,44.8-40.1v-29.6c0-17.1-7.2-26-18.5-31.2ZM28.5,55.3h29.6c10.5,0,17.4,5.8,17.4,16.6v.3c0,12.4-10,17.4-19.6,17.4h-27.4s0-34.3,0-34.3ZM76.3,134.1c0,10.8-6.9,17.4-19.9,17.4h-27.9v-35.1h27.1c12.2,0,20.7,4.4,20.7,17.4v.3Z"/>
    <path class="st0" d="M152.9,3.9l-43.7,183.5v15.5h25.4l8.3-38.7h47.3l8.6,38.7h25.4v-15.5L180,3.9h-27.1ZM153.2,116.6l10-46.4h6.1l10.2,46.4h-26.3Z"/>
    <polygon class="st0" points="312.7 110.6 309.9 110.6 265.1 3.9 236.7 3.9 236.7 202.9 261 202.9 261 98.1 263.7 98.1 308.8 202.9 337 202.9 337 3.9 312.7 3.9 312.7 110.6"/>
    <path class="st0" d="M418.5.3c-38.1,0-65.2,25.4-65.2,63.9v79.3c0,38.1,23.8,62.7,61.1,62.7s34.8-7.7,42.8-21.8l4.7,18.5h16v-104.2l-2.2-2.2h-62.5v22.7h40.4c-1.4,19.6-15.2,32.3-36.2,32.3s-39.3-16-39.3-40.4v-13.5c0-24.3,16.9-40.6,40.4-40.6s31,9.1,34.8,26.3v1.4l24.6-.3v-35.1C472.9,17.8,450,.4,418.5.4h0Z"/>
    <path class="st0" d="M558.7.3c-38.1,0-65.2,25.4-65.2,63.9v79.3c0,38.1,23.8,62.7,61.1,62.7s34.8-7.7,42.8-21.8l4.7,18.5h16v-104.2l-2.2-2.2h-62.5v22.7h40.4c-1.4,19.6-15.2,32.3-36.2,32.3s-39.3-16-39.3-40.4v-13.5c0-24.3,16.9-40.6,40.4-40.6s31,9.1,34.8,26.3v1.4l24.6-.3v-35.1c-5-31.5-27.9-48.9-59.4-48.9h0Z"/>
    <polygon class="st0" points="661.5 114.7 722.9 114.7 722.9 92 661.5 92 661.5 59.4 727 59.4 727 3.9 636.9 3.9 636.9 202.9 727.6 202.9 727.6 147.3 661.5 147.3 661.5 114.7"/>
    <path class="st0" d="M819.6,108.3c12.4-5.8,21.3-17.1,21.3-34.3v-29.3c0-22.7-15.8-40.9-42.6-40.9h-54.5v199h24.6v-66.1h22.1c13.3.3,18,6.1,20.7,19.9l5.8,46.2h25.2l-6.6-69.7c-1.9-12.2-5.8-20.7-16-24.9h0ZM816.3,71.3c0,13-8.3,19.1-20.7,19.1h-27.1v-36.8h27.1c12.4,0,20.7,5.5,20.7,17.4v.3Z"/>
  </g>
  <g>
    <path class="st0" d="M104.2,292l18.4-56.7h9l18.8,56.7v2h-8.3l-4.4-13.5h-21l-4.2,13.5h-8.3v-2h0ZM134.4,270.5l-6.9-21.5h-.9l-6.7,21.5h14.5Z"/>
    <path class="st0" d="M154.5,235.3h9.1v10.6h-9.1v-10.6ZM155.3,251.6h7.7v42.4h-7.7v-42.4Z"/>
    <path class="st0" d="M213.7,235.3v8.9h-10.1v7.4h10.1v9.7h-10.1v32.7h-7.7v-32.7h-9v-9.7h9v-9c0-4.8,2.6-7.3,7.3-7.3h10.5ZM217.7,235.3h9.1v10.6h-9.1v-10.6ZM218.4,251.6h7.7v42.4h-7.7v-42.4Z"/>
    <path class="st0" d="M234.6,235.3h7.7v58.8h-7.7v-58.8Z"/>
    <path class="st0" d="M250.6,251.6h6.9l.7.7v2.9c2-2.8,5.1-4.7,9.9-4.7s8.9,2.2,10.8,6.3c2.3-3.8,6-6.3,11.3-6.3,8.3,0,12.8,5.1,12.8,15.8v27.8h-7.6v-23.8c0-6.6-1.8-9.5-6.6-9.5s-8.1,3.3-8.1,11.3v22h-7.7v-23.8c0-6.6-2-9.5-6.8-9.5s-8,3.3-8,11.3v22h-7.7v-42.4h.1Z"/>
    <path class="st0" d="M309.3,280.9v-2.7h7.9v.2c0,4.8,3.6,7.9,9.5,7.9s8.2-2.2,8.2-5.2h0c0-9.2-25.1,1.6-25.1-15.8v-1.8c0-7.7,7.2-13.1,16.6-13.1s17,5.9,17,14.4v2h-7.9v-.2c0-5.4-4.4-7.3-9.1-7.3s-8.5,2.1-8.5,5.5v.2c0,8.2,25.1-1.2,25.1,15.5v1.7c0,7.5-6.2,13-16.2,13s-17.3-5.3-17.3-14.3h-.2Z"/>
    <path class="st0" d="M375.9,251.6l.7.7v3.8c2.9-3.1,7.3-5.6,13.1-5.6,10.7,0,18.9,7.4,18.9,19.7v5.6c0,11.7-8.2,19.4-18.9,19.4s-10.2-2.3-13.1-5.4v20.6h-7.7v-58.8h7ZM376.5,272.9c0,7.3,5.1,12.1,12.1,12.1s12.1-4.8,12.1-12.1-5.1-12.2-12.1-12.2-12.1,4.9-12.1,12.2Z"/>
    <path class="st0" d="M415.1,251.6h6.9l.7.7v4.7c2.3-3.9,6.4-6.3,11.3-6.3s2.9.2,4.2.3v10l-.6.5c-1.6-.2-3.1-.3-5.1-.3-6.9,0-9.8,5.1-9.8,13.9v18.9h-7.7v-42.4h.1Z"/>
    <path class="st0" d="M439.8,275.5v-5.3c0-11.5,8.6-19.8,20.3-19.8s20.1,8.2,20.1,19.8v5.3c0,11.5-8.5,19.7-20.1,19.7s-20.3-8.2-20.3-19.7ZM472.2,272.9c0-7.2-5-12.3-12.2-12.3s-12.2,5.1-12.2,12.3,5,12.2,12.2,12.2,12.2-5.1,12.2-12.2Z"/>
    <path class="st0" d="M517.8,294.1l-.7-.7v-3.7c-2.7,3.1-7,5.5-12.9,5.5-10.7,0-19.1-7.4-19.1-19.7v-5.6c0-11.8,8.4-19.4,19.1-19.4s10.1,2,12.9,5.1v-20.3h7.6v58.8h-6.9,0ZM517.2,272.8c0-7.3-5.1-12.1-12.1-12.1s-12.1,4.8-12.1,12.1,5.1,12.2,12.1,12.2,12.1-4.9,12.1-12.2Z"/>
    <path class="st0" d="M565.4,294.1h-6.9l-.7-.7v-3.2c-2.7,3.5-6.9,5.1-11.1,5.1-9,0-14-4.8-14-16.2v-27.3h7.7v24.2c0,6.1,2.3,9.7,8.1,9.7s9.3-4.3,9.3-12.3v-21.5h7.6v42.4-.2Z"/>
    <path class="st0" d="M571.9,275.5v-5.2c0-12.5,9.1-19.8,19.7-19.8s17.5,5.3,18.9,14.9v2.7h-8.2c-.8-4.7-5.1-7.8-10.7-7.8s-11.7,4.9-11.7,12.4v.3c0,7.4,5,12.4,11.7,12.4s9.8-2.9,10.7-7.6h8.2v2.5c-1.4,9.3-9,14.9-18.9,14.9s-19.7-7.5-19.7-19.8h0Z"/>
    <path class="st0" d="M621.5,285v-23.7h-9v-9.7h9v-9.5l7-7.4h.7v17h10.1v9.7h-10.1v19.8c0,2.1.7,2.9,2.9,2.9h7.3v10h-8.9c-6.8,0-8.9-4.2-8.9-9.1h0Z"/>
    <path class="st0" d="M643.9,235.3h9.1v10.6h-9.1v-10.6ZM644.6,251.6h7.7v42.4h-7.7v-42.4Z"/>
    <path class="st0" d="M658.7,275.5v-5.3c0-11.5,8.6-19.8,20.3-19.8s20.1,8.2,20.1,19.8v5.3c0,11.5-8.5,19.7-20.1,19.7s-20.3-8.2-20.3-19.7ZM691.1,272.9c0-7.2-5-12.3-12.2-12.3s-12.2,5.1-12.2,12.3,5,12.2,12.2,12.2,12.2-5.1,12.2-12.2Z"/>
    <path class="st0" d="M705.6,251.6h6.9l.7.7v3.6c2.8-3.7,6.7-5.5,11.8-5.5,13.9,0,14.3,13.3,14.3,17.2v26.4h-7.7v-23c0-6.8-2.5-10.9-8.8-10.9s-9.5,4.3-9.5,12.8v21.1h-7.7v-42.4Z"/>
  </g>
</svg>