<?xml version="1.0" encoding="UTF-8"?>
<svg id="Calque_1" xmlns="http://www.w3.org/2000/svg" version="1.1" viewBox="0 0 1430 362.8">
  <!-- Generator: Adobe Illustrator 29.5.1, SVG Export Plug-In . SVG Version: 2.1.0 Build 141)  -->
  <defs>
    <style>
      .st0 {
        fill: #474747;
      }
    </style>
  </defs>
  <path class="st0" d="M-4,175.8V.8h27.5v76.2L95,.8h34L61.5,73l69.2,102.8h-33.5l-55.5-82-18.2,19.2v62.8H-4ZM151.2,175.8V51.8h27.5v124h-27.5ZM150.5,29.8V0h29.2v29.8h-29.2ZM254.2,178.8c-15.7,0-28.8-3.7-39.2-11-10.3-7.3-16.2-17.7-17.8-31h28.2c1.2,6.2,4.4,11.1,9.8,14.8,5.3,3.7,12,5.5,20,5.5s13.8-1.6,18-4.8c4.3-3.2,6.5-7.1,6.5-11.8s-1.4-6.8-4.2-8.8c-2.7-2-7.7-3.6-15-4.8-2.8-.5-6.2-1-10-1.5-3.8-.7-7.2-1.3-10-2-6.3-1.2-12.3-3.2-18-6-5.5-2.8-10-6.7-13.5-11.5-3.5-5-5.2-11.2-5.2-18.8,0-10.8,4.1-19.9,12.2-27.2,8.2-7.5,19.8-11.2,34.8-11.2s26.8,3.3,35.8,10c9.2,6.5,14.4,16.2,15.8,29.2h-27c-.5-6-3.1-10.4-7.8-13.2-4.7-2.8-10.2-4.2-16.8-4.2s-12.2,1.4-16.2,4.2-6,6.3-6,10.5c0,7.7,6.1,12.6,18.2,14.8,1.8.3,3.9.8,6.2,1.2,2.5.3,5,.8,7.5,1.2,2.7.3,4.9.7,6.8,1,4.3.5,8.8,1.5,13.2,3,4.5,1.3,8.7,3.2,12.5,5.8,3.8,2.5,6.9,5.8,9.2,10,2.3,4.2,3.5,9.4,3.5,15.8s-2.1,15.1-6.2,21.2c-4,6-9.8,10.8-17.5,14.2-7.7,3.5-16.9,5.2-27.8,5.2ZM374.3,178.8c-15.7,0-28.8-3.7-39.2-11-10.3-7.3-16.2-17.7-17.8-31h28.2c1.2,6.2,4.4,11.1,9.8,14.8,5.3,3.7,12,5.5,20,5.5s13.8-1.6,18-4.8c4.3-3.2,6.5-7.1,6.5-11.8s-1.4-6.8-4.2-8.8c-2.7-2-7.7-3.6-15-4.8-2.8-.5-6.2-1-10-1.5-3.8-.7-7.2-1.3-10-2-6.3-1.2-12.3-3.2-18-6-5.5-2.8-10-6.7-13.5-11.5-3.5-5-5.2-11.2-5.2-18.8,0-10.8,4.1-19.9,12.2-27.2,8.2-7.5,19.8-11.2,34.8-11.2s26.8,3.3,35.8,10c9.2,6.5,14.4,16.2,15.8,29.2h-27c-.5-6-3.1-10.4-7.8-13.2-4.7-2.8-10.2-4.2-16.8-4.2s-12.2,1.4-16.2,4.2-6,6.3-6,10.5c0,7.7,6.1,12.6,18.2,14.8,1.8.3,3.9.8,6.2,1.2,2.5.3,5,.8,7.5,1.2,2.7.3,4.9.7,6.8,1,4.3.5,8.8,1.5,13.2,3,4.5,1.3,8.7,3.2,12.5,5.8,3.8,2.5,6.9,5.8,9.2,10,2.3,4.2,3.5,9.4,3.5,15.8s-2.1,15.1-6.2,21.2c-4,6-9.8,10.8-17.5,14.2-7.7,3.5-16.9,5.2-27.8,5.2ZM450.3,175.8V.8h27.5v76.2L549.3.8h34l-67.5,72.2,69.2,102.8h-33.5l-55.5-82-18.2,19.2v62.8h-27.5ZM605.6,175.8V51.8h27.5v124h-27.5ZM604.8,29.8V0h29.2v29.8h-29.2ZM708.5,178.8c-15.7,0-28.8-3.7-39.2-11-10.3-7.3-16.2-17.7-17.8-31h28.2c1.2,6.2,4.4,11.1,9.8,14.8s12,5.5,20,5.5,13.8-1.6,18-4.8c4.3-3.2,6.5-7.1,6.5-11.8s-1.4-6.8-4.2-8.8c-2.7-2-7.7-3.6-15-4.8-2.8-.5-6.2-1-10-1.5-3.8-.7-7.2-1.3-10-2-6.3-1.2-12.3-3.2-18-6-5.5-2.8-10-6.7-13.5-11.5-3.5-5-5.2-11.2-5.2-18.8,0-10.8,4.1-19.9,12.2-27.2,8.2-7.5,19.8-11.2,34.8-11.2s26.8,3.3,35.8,10c9.2,6.5,14.4,16.2,15.8,29.2h-27c-.5-6-3.1-10.4-7.8-13.2s-10.2-4.2-16.8-4.2-12.2,1.4-16.2,4.2-6,6.3-6,10.5c0,7.7,6.1,12.6,18.2,14.8,1.8.3,3.9.8,6.2,1.2,2.5.3,5,.8,7.5,1.2,2.7.3,4.9.7,6.8,1,4.3.5,8.8,1.5,13.2,3,4.5,1.3,8.7,3.2,12.5,5.8s6.9,5.8,9.2,10,3.5,9.4,3.5,15.8-2.1,15.1-6.2,21.2c-4,6-9.8,10.8-17.5,14.2s-16.9,5.2-27.8,5.2ZM828.7,178.8c-15.7,0-28.8-3.7-39.2-11-10.3-7.3-16.2-17.7-17.8-31h28.2c1.2,6.2,4.4,11.1,9.8,14.8s12,5.5,20,5.5,13.8-1.6,18-4.8c4.3-3.2,6.5-7.1,6.5-11.8s-1.4-6.8-4.2-8.8c-2.7-2-7.7-3.6-15-4.8-2.8-.5-6.2-1-10-1.5-3.8-.7-7.2-1.3-10-2-6.3-1.2-12.3-3.2-18-6-5.5-2.8-10-6.7-13.5-11.5-3.5-5-5.2-11.2-5.2-18.8,0-10.8,4.1-19.9,12.2-27.2,8.2-7.5,19.8-11.2,34.8-11.2s26.8,3.3,35.8,10c9.2,6.5,14.4,16.2,15.8,29.2h-27c-.5-6-3.1-10.4-7.8-13.2s-10.2-4.2-16.8-4.2-12.2,1.4-16.2,4.2-6,6.3-6,10.5c0,7.7,6.1,12.6,18.2,14.8,1.8.3,3.9.8,6.2,1.2,2.5.3,5,.8,7.5,1.2,2.7.3,4.9.7,6.8,1,4.3.5,8.8,1.5,13.2,3,4.5,1.3,8.7,3.2,12.5,5.8s6.9,5.8,9.2,10,3.5,9.4,3.5,15.8-2.1,15.1-6.2,21.2c-4,6-9.8,10.8-17.5,14.2s-16.9,5.2-27.8,5.2Z"/>
  <path class="st0" d="M138.8,285.9c26.3-16.7,37.6-43.9,25-74-7.9-19-34.2-34.3-53.7-37H-1v232h112.6c3.9,0,26.8-7.5,31.5-9.7,48.7-21.6,48.3-95.2-4.4-111.3h0ZM50,218h45.2c.6,0,8.3,2.8,9.7,3.5,17.9,8.6,16.5,33.1-.5,42.2-1.5.8-9.9,4-10.8,4h-43.6v-49.7ZM111.2,360.1c-1.5.6-10.5,3.7-11.1,3.7h-50.2v-54.7h46.9c.8,0,10.4,2.4,11.9,2.9,23.3,8.7,26.4,37.8,2.5,48Z"/>
  <path class="st0" d="M833.7,360.4c-2.8,12.7-35.5,36.3-47.7,41.5-99.8,42-198.7-55.4-159-157.3,27.3-70.1,116.6-96.4,178.3-54.7,7,4.8,19.4,12.2,15,20.9-1.5,3-17.3,25.2-19.4,26.9-7.1,6.1-5.8.2-9.3-2.4-15-10.9-35.4-17.3-54.1-17-92.2,1.5-92.1,154.1,9.9,144.6,8.6-.8,37-8.2,37-19.1v-25.7c-1.6.5-3.6-1.7-4.1-1.7h-46.8v-44.8l104.1-.2c2.5-.9,8.2-24.9,10.6-30.8,26.5-64.4,109.2-89.2,168.4-55,4.4,2.6,22.9,15.2,23.9,19.1,1.5,5.9-19.7,27.7-22.7,34.6l-2.4.7c-17.3-18.2-48.4-23.7-72.2-19.7-54.4,9.2-69.2,80.1-37.1,120.2,22.4,27.9,70.6,30.5,96.9,6.7v-28.2l-2.5-2.5h-46.8v-44.8h112.6c2.3-1.5,2.3-3.3,2.5-5.7,2.4-20.4.4-53.3,0-74.9,0-5.5-3.1-9.9,0-15.7h160.2l2.5,2.5v39.9c0,.6-1.7,2.7-1.9,3.9-6.8,1.9-13.8-1.3-20.2-1.5-24.1-.7-62.8-2.7-85.6,0-2.4.3-4.2.2-5.7,2.6v45.7h101.9v44.8h-99.4l-2.5,2.5v43.2l2.5,2.5h112.6v46.5h-164.3v-89.7h-14.8v42.3c0,4.7-27.4,29.6-33,33.1-68.5,43-163.5,5.7-179.2-75.2l-8-.2v42.3h0Z"/>
  <path class="st0" d="M399.9,400.3v-225h48.7l107.4,148.8c2.4-1.6,2.3-3.2,2.6-5.7,3-27.8-.1-67,0-96,0-15.7-.7-31.8,0-47.2h47.1l2.5,2.5v229.1h-50.4l-106.5-145.6v145.6h-103.2l-66.1-158.8-65.2,158.8h-54.5l94.4-225.6,3.1-5.2c1.9-1.2,39.6-1.6,43.8-.8,1.8.3,3.2.8,4,2.6l92.6,222.4h0Z"/>
  <path class="st0" d="M1444,406.9h-61.1l-48.8-74.6h-31.4l-2.5,2.5v72.1h-51.2v-229.5l2.5-2.5h112.4c7.9,0,30.5,9,37.7,13.6,48.7,30.3,41.2,114.7-12.1,136.4l54.5,82h0ZM1300.2,287.6h53.7c1.2,0,12.9-4.2,14.6-5.2,18.7-10.8,18.2-45.1.6-56.4-2.3-1.5-13.2-6.3-15.2-6.3h-51.2l-2.5,2.5v65.5h0Z"/>
</svg>